<?xml version="1.0" encoding="utf-8"?>
<!-- Generator: Adobe Illustrator 15.1.0, SVG Export Plug-In . SVG Version: 6.00 Build 0)  -->
<!DOCTYPE svg PUBLIC "-//W3C//DTD SVG 1.1//EN" "http://www.w3.org/Graphics/SVG/1.1/DTD/svg11.dtd">
<svg version="1.1" id="Layer_1" xmlns="http://www.w3.org/2000/svg" xmlns:xlink="http://www.w3.org/1999/xlink" x="0px" y="0px"
	 width="1024px" height="768px" viewBox="0 0 1024 768" enable-background="new 0 0 1024 768" xml:space="preserve">
<g enable-background="new    ">
	<path fill="#333333" d="M160.38,460.688c-14.58,12.689-34.741,19.035-60.48,19.035c-26.101,0-46.305-6.299-60.615-18.9
		c-14.31-12.597-21.465-32.037-21.465-58.32v-119.88h42.39v119.88c0,5.224,0.447,10.354,1.35,15.391
		c0.898,5.041,2.789,9.496,5.67,13.365c2.877,3.872,6.885,7.02,12.015,9.449c5.13,2.431,12.015,3.646,20.655,3.646
		c15.12,0,25.557-3.375,31.32-10.125c5.758-6.75,8.64-17.322,8.64-31.726v-119.88h42.39v119.88
		C182.25,428.604,174.96,447.997,160.38,460.688z"/>
	<path fill="#333333" d="M252.99,282.622v72.63h0.81c4.86-8.1,11.07-13.993,18.63-17.685c7.56-3.688,14.939-5.535,22.14-5.535
		c10.26,0,18.672,1.396,25.245,4.186c6.568,2.792,11.745,6.661,15.525,11.609c3.78,4.953,6.434,10.981,7.965,18.09
		c1.527,7.113,2.295,14.985,2.295,23.625v85.86h-38.34v-78.84c0-11.518-1.801-20.115-5.4-25.785c-3.603-5.67-9.99-8.505-19.17-8.505
		c-10.441,0-18.001,3.104-22.68,9.314c-4.683,6.21-7.02,16.429-7.02,30.646v73.17h-38.34v-192.78H252.99z"/>
	<path fill="#333333" d="M455.756,385.223v32.939h-81.27v-32.939H455.756z"/>
	<path fill="#333333" d="M485.456,375.367c3.417-9.087,8.277-16.828,14.58-23.22c6.298-6.388,13.857-11.34,22.679-14.851
		c8.816-3.51,18.719-5.265,29.699-5.265c10.979,0,20.926,1.755,29.836,5.265c8.91,3.511,16.512,8.463,22.814,14.851
		c6.299,6.392,11.158,14.133,14.58,23.22c3.418,9.092,5.131,19.217,5.131,30.375c0,11.163-1.713,21.241-5.131,30.24
		c-3.422,9.003-8.281,16.697-14.58,23.085c-6.303,6.392-13.904,11.298-22.814,14.715s-18.857,5.13-29.836,5.13
		c-10.98,0-20.883-1.713-29.699-5.13c-8.822-3.417-16.381-8.323-22.679-14.715c-6.303-6.388-11.163-14.082-14.58-23.085
		c-3.421-8.999-5.13-19.077-5.13-30.24C480.325,394.584,482.034,384.459,485.456,375.367z M520.285,422.077
		c1.08,5.312,2.924,10.083,5.535,14.311c2.607,4.231,6.074,7.606,10.395,10.125c4.32,2.522,9.721,3.779,16.199,3.779
		c6.48,0,11.924-1.257,16.336-3.779c4.408-2.519,7.918-5.894,10.529-10.125c2.607-4.228,4.455-8.999,5.535-14.311
		c1.08-5.307,1.621-10.753,1.621-16.335c0-5.577-0.541-11.07-1.621-16.47c-1.08-5.4-2.928-10.167-5.535-14.311
		c-2.611-4.138-6.121-7.513-10.529-10.125c-4.412-2.606-9.855-3.915-16.336-3.915c-6.479,0-11.879,1.309-16.199,3.915
		c-4.32,2.612-7.787,5.987-10.395,10.125c-2.611,4.144-4.455,8.91-5.535,14.311c-1.08,5.399-1.621,10.893-1.621,16.47
		C518.664,411.324,519.205,416.771,520.285,422.077z"/>
	<path fill="#333333" d="M687.953,282.622v72.63h0.811c4.859-8.1,11.07-13.993,18.631-17.685c7.559-3.688,14.938-5.535,22.139-5.535
		c10.26,0,18.672,1.396,25.246,4.186c6.568,2.792,11.744,6.661,15.523,11.609c3.781,4.953,6.434,10.981,7.967,18.09
		c1.525,7.113,2.295,14.985,2.295,23.625v85.86h-38.34v-78.84c0-11.518-1.803-20.115-5.4-25.785c-3.604-5.67-9.99-8.505-19.17-8.505
		c-10.441,0-18.002,3.104-22.68,9.314c-4.684,6.21-7.021,16.429-7.021,30.646v73.17h-38.34v-192.78H687.953z"/>
	<path fill="#333333" d="M853.73,433.822v41.58H811.34v-41.58H853.73z"/>
	<path fill="#333333" d="M928.789,433.822v41.58H886.4v-41.58H928.789z"/>
	<path fill="#333333" d="M1003.85,433.822v41.58h-42.389v-41.58H1003.85z"/>
</g>
</svg>
