<?xml version="1.0" encoding="utf-8"?>
<!-- Generator: Adobe Illustrator 18.0.0, SVG Export Plug-In . SVG Version: 6.00 Build 0)  -->
<!DOCTYPE svg PUBLIC "-//W3C//DTD SVG 1.0//EN" "http://www.w3.org/TR/2001/REC-SVG-20010904/DTD/svg10.dtd">
<svg version="1.0" xmlns="http://www.w3.org/2000/svg" xmlns:xlink="http://www.w3.org/1999/xlink" x="0px" y="0px"
	 viewBox="0 0 187.3 36.1" enable-background="new 0 0 187.3 36.1" xml:space="preserve">
<g>
	<path fill="#004DA7" d="M24.8,28.5c2.1,0,3.9-1.7,3.9-3.9c0-1,0-18.6,0-19.6c0-2.1-1.7-3.9-3.9-3.9c-0.9,0-18.8,0-19.7,0
		C3,1.1,1.3,2.9,1.3,5c0,1,0,18.8,0,19.6c0,2.1,1.7,3.9,3.9,3.9C6,28.5,23.9,28.5,24.8,28.5z"/>
	<g>
		<path fill="#FFFFFF" d="M11.1,20.9c-1.1,0-1.9,0.9-1.9,1.9c0,1.1,0.9,1.9,1.9,1.9c1.1,0,1.9-0.9,1.9-1.9
			C13,21.7,12.1,20.9,11.1,20.9 M11.1,23.4c-0.3,0-0.6-0.3-0.6-0.6c0-0.3,0.3-0.6,0.6-0.6c0.3,0,0.6,0.3,0.6,0.6
			C11.7,23.1,11.4,23.4,11.1,23.4"/>
		<g>
			<path fill="#FFFFFF" d="M12.1,11c0,0.2,0.2,0.3,0.3,0.3l4-1.1c0.1,0,0.2-0.2,0.1-0.4l-1-3.6c-0.1-0.2-0.2-0.3-0.3-0.3l-4,1.1
				c-0.1,0-0.2,0.2-0.1,0.4L12.1,11z"/>
			<path fill="#FFFFFF" d="M12.3,12.1l1,3.6c0.1,0.2,0.2,0.3,0.4,0.3l5.9-1.6c0.2,0,0.3-0.2,0.2-0.4l-1-3.6c0-0.2-0.2-0.3-0.4-0.3
				l-5.9,1.6C12.3,11.7,12.2,11.9,12.3,12.1"/>
			<path fill="#FFFFFF" d="M19.8,20.4c0,0-3.6,1-4.9,1.3c-0.4,0.1-0.7-0.2-0.8-0.5c-0.4-1.8-2.5-10.2-2.7-10.9
				c-0.2-0.5-0.5-0.8-0.8-1c-1-0.6-4-2.3-4-2.3C6.4,6.9,6.1,7,5.9,7.2C5.8,7.5,5.9,7.8,6.1,8c0,0,3,1.7,4,2.3
				c0.1,0.1,0.3,0.2,0.3,0.4c0.1,0.3,0.8,3.1,1.5,5.8c0.4,1.7,0.8,3.3,1.1,4.3c-0.5-0.5-1.2-0.7-1.9-0.7c-1.6,0-2.8,1.3-2.8,2.8
				c0,1.6,1.3,2.8,2.8,2.8c1.6,0,2.8-1.3,2.8-2.8c0,0,0-0.1,0-0.1c0.2,0.1,0.4,0.2,0.6,0.2c0,0,0,0,0,0c0.1,0,0.3,0,0.4-0.1
				c0.7-0.2,5.2-1.4,5.2-1.4c0.3-0.1,0.4-0.4,0.4-0.6C20.4,20.5,20.1,20.3,19.8,20.4 M11.1,25.1c-1.3,0-2.3-1-2.3-2.3
				c0-1.3,1-2.3,2.3-2.3c1.3,0,2.3,1,2.3,2.3C13.4,24.1,12.3,25.1,11.1,25.1"/>
			<path fill="#FFFFFF" d="M22.8,18.7l-1.1-4c-0.1-0.2-0.3-0.3-0.5-0.3l-7.4,2c-0.2,0.1-0.3,0.3-0.3,0.5l1.1,4
				c0.1,0.2,0.3,0.3,0.5,0.3l7.4-2C22.7,19.1,22.9,18.9,22.8,18.7"/>
		</g>
	</g>
	<g>
		<path fill="#FFFFFF" d="M48.8,9.3c0-2.4-0.9-4.1-3.6-4.1c-2.4,0-3.8,1.3-3.8,3.7c0,6.5,10.9,2.6,10.9,11c0,5.3-3.9,6.8-7.2,6.8
			c-5.4,0-7-2.8-7-7.7H41c0,2.6,0.2,5.3,4.3,5.3c2.3,0,4-1.6,4-4.1c0-6.5-10.9-2.7-10.9-11.2c0-2.1,0.9-6.3,6.7-6.3
			c4.4,0,6.4,2.2,6.4,6.4H48.8z"/>
		<path fill="#FFFFFF" d="M54.9,14.3c0-3.9,1.7-5.7,5.8-5.7c5.3,0,5.3,3.2,5.3,5v9.6c0,0.7,0,1.4,0.8,1.4c0.4,0,0.5-0.1,0.6-0.2v1.9
			c-0.2,0-0.9,0.2-1.6,0.2c-1,0-2.3,0-2.4-2.2h-0.1c-0.9,1.5-2.5,2.5-4.2,2.5c-3.2,0-4.7-1.9-4.7-5c0-2.4,1-4.1,3.3-4.8l3.6-1.1
			c2-0.6,2-1.2,2-2.6c0-1.6-1-2.5-2.8-2.5c-3,0-3,2.8-3,3.4v0.2H54.9z M63.2,16.9c-1,1.1-3.4,1.3-4.6,2c-0.9,0.5-1.3,1.2-1.3,2.7
			c0,1.7,0.6,3,2.4,3c1.8,0,3.5-1.5,3.5-3.3V16.9z"/>
		<path fill="#FFFFFF" d="M69.6,9h2.6v2h0.1c0.7-1.6,2.5-2.5,4.2-2.5c2,0,3.2,0.8,3.7,2.7c0.8-1.5,2.3-2.7,4.1-2.7
			c4.5,0,4.5,3.4,4.5,5.5v12.2h-2.7V14.4c0-1.3-0.1-3.5-2.3-3.5c-1.3,0-3.2,0.8-3.2,3.5v11.9h-2.7V14.4c0-1.3-0.1-3.5-2.3-3.5
			c-1.3,0-3.2,0.8-3.2,3.5v11.9h-2.7V9z"/>
		<path fill="#FFFFFF" d="M92.1,9h2.6v2.1h0.1c0.4-1.3,1.9-2.6,3.7-2.6c4.1,0,5.6,3.6,5.6,8.8c0,3.9-1.2,9.4-5.6,9.4
			c-1.5,0-3-0.9-3.6-2.4h-0.1V32h-2.7V9z M98.1,24.4c2.5,0,3.2-2.6,3.2-7.1c0-3.8-0.6-6.4-3.2-6.4c-3,0-3.5,2.8-3.5,6.8
			C94.6,21,95.2,24.4,98.1,24.4z"/>
		<path fill="#FFFFFF" d="M106.8,3.3h2.7v23h-2.7V3.3z"/>
		<path fill="#FFFFFF" d="M115,18c0,2.6,0,6.6,3.3,6.6c2.6,0,2.9-2.7,2.9-4h2.7c0,1.8-1.1,6.1-5.8,6.1c-4.2,0-6-2.9-6-8.9
			c0-4.3,0.8-9.3,6.2-9.3c5.3,0,5.8,4.6,5.8,8.3V18H115z M121.3,15.9v-0.9c0-1.9-0.6-4.2-3-4.2c-2.8,0-3.2,3.5-3.2,4.5v0.6H121.3z"
			/>
		<path fill="#FFFFFF" d="M134.4,14.2v-0.5c0-1.5-0.4-3.5-3.2-3.5c-1.8,0-3.3,0.9-3.3,3.1c0,1.8,0.8,2.7,2.5,3.3l2.6,1
			c2,0.8,3.1,2.2,3.1,4.5c0,2.8-2.2,4.6-4.9,4.6c-4.7,0-5-3.4-5-5.3v-0.5h1.2v0.5c0,2.4,1,4.1,3.8,4.1c2.5,0,3.5-1.6,3.5-3.5
			c0-1.6-0.6-2.7-2.5-3.4l-2.5-1c-2.1-0.8-3.2-2.1-3.2-4.2c0-2.8,1.9-4.3,4.6-4.3c3.7,0,4.4,2.5,4.4,4.6v0.5H134.4z"/>
		<path fill="#FFFFFF" d="M137.4,9.5h2.3v-5h1.2v5h2.8v1.1h-2.8v13c0,1.6,0.8,1.9,1.5,1.9c0.5,0,1,0,1.5-0.2v1.1
			c-0.6,0.1-1.3,0.2-1.7,0.2c-1.7,0-2.5-1-2.5-2.8V10.6h-2.3V9.5z"/>
		<path fill="#FFFFFF" d="M155.2,24.3c0,0.8,0.3,1.1,0.7,1.1c0.3,0,0.5,0,0.8-0.2v1c-0.3,0.2-0.7,0.3-1.3,0.3
			c-0.5,0-1.5-0.5-1.5-1.8v-1.1h-0.1c-0.5,1.7-2.2,3.1-4.4,3.1c-2.9,0-4.2-2.1-4.2-4.7c0-2.5,1-4,3.4-4.6l3.6-1
			c1.5-0.4,1.6-1.1,1.6-2.5c0-3.1-1.4-3.7-3.3-3.7c-2.8,0-3.7,1.8-3.7,4.1h-1.2c0-2.3,0.8-5.2,4.8-5.2c3.7,0,4.6,2,4.6,4.4V24.3z
			 M153.9,16.5L153.9,16.5c-0.5,0.7-0.9,0.8-2.2,1.1l-2.5,0.7c-2,0.5-2.7,1.7-2.7,3.7c0,2.2,1,3.6,3.1,3.6c2.9,0,4.3-2.3,4.3-5.6
			V16.5z"/>
		<path fill="#FFFFFF" d="M168.9,20.8c0,1.6-0.9,5.9-5.2,5.9s-5.4-3.8-5.4-8.9c0-5.6,1.7-8.7,5.7-8.7c4.1,0,4.9,4,4.9,5.2h-1.4
			c0-1-0.7-4.1-3.6-4.1c-3.1,0-4.3,2.9-4.3,7.7c0,5.3,1.2,7.7,4.3,7.7c3.1,0,3.7-3.5,3.7-4.8H168.9z"/>
		<path fill="#FFFFFF" d="M171.4,3.3h1.2v15.1h0.1l7.3-9h1.5l-5.2,6.2l6.2,10.6h-1.5l-5.5-9.5l-2.8,3.3v6.2h-1.2V3.3z"/>
	</g>
	<path fill="#004DA7" d="M24.8,28.5c2.1,0,3.9-1.7,3.9-3.9c0-1,0-18.6,0-19.6c0-2.1-1.7-3.9-3.9-3.9c-0.9,0-18.8,0-19.7,0
		C3,1.1,1.3,2.9,1.3,5c0,1,0,18.8,0,19.6c0,2.1,1.7,3.9,3.9,3.9C6,28.5,23.9,28.5,24.8,28.5z"/>
	<g>
		<path fill="#FFFFFF" d="M11.1,20.9c-1.1,0-1.9,0.9-1.9,1.9c0,1.1,0.9,1.9,1.9,1.9c1.1,0,1.9-0.9,1.9-1.9
			C13,21.7,12.1,20.9,11.1,20.9 M11.1,23.4c-0.3,0-0.6-0.3-0.6-0.6c0-0.3,0.3-0.6,0.6-0.6c0.3,0,0.6,0.3,0.6,0.6
			C11.7,23.1,11.4,23.4,11.1,23.4"/>
		<g>
			<path fill="#FFFFFF" d="M12.1,11c0,0.2,0.2,0.3,0.3,0.3l4-1.1c0.1,0,0.2-0.2,0.1-0.4l-1-3.6c-0.1-0.2-0.2-0.3-0.3-0.3l-4,1.1
				c-0.1,0-0.2,0.2-0.1,0.4L12.1,11z"/>
			<path fill="#FFFFFF" d="M12.3,12.1l1,3.6c0.1,0.2,0.2,0.3,0.4,0.3l5.9-1.6c0.2,0,0.3-0.2,0.2-0.4l-1-3.6c0-0.2-0.2-0.3-0.4-0.3
				l-5.9,1.6C12.3,11.7,12.2,11.9,12.3,12.1"/>
			<path fill="#FFFFFF" d="M19.8,20.4c0,0-3.6,1-4.9,1.3c-0.4,0.1-0.7-0.2-0.8-0.5c-0.4-1.8-2.5-10.2-2.7-10.9
				c-0.2-0.5-0.5-0.8-0.8-1c-1-0.6-4-2.3-4-2.3C6.4,6.9,6.1,7,5.9,7.2C5.8,7.5,5.9,7.8,6.1,8c0,0,3,1.7,4,2.3
				c0.1,0.1,0.3,0.2,0.3,0.4c0.1,0.3,0.8,3.1,1.5,5.8c0.4,1.7,0.8,3.3,1.1,4.3c-0.5-0.5-1.2-0.7-1.9-0.7c-1.6,0-2.8,1.3-2.8,2.8
				c0,1.6,1.3,2.8,2.8,2.8c1.6,0,2.8-1.3,2.8-2.8c0,0,0-0.1,0-0.1c0.2,0.1,0.4,0.2,0.6,0.2c0,0,0,0,0,0c0.1,0,0.3,0,0.4-0.1
				c0.7-0.2,5.2-1.4,5.2-1.4c0.3-0.1,0.4-0.4,0.4-0.6C20.4,20.5,20.1,20.3,19.8,20.4 M11.1,25.1c-1.3,0-2.3-1-2.3-2.3
				c0-1.3,1-2.3,2.3-2.3c1.3,0,2.3,1,2.3,2.3C13.4,24.1,12.3,25.1,11.1,25.1"/>
			<path fill="#FFFFFF" d="M22.8,18.7l-1.1-4c-0.1-0.2-0.3-0.3-0.5-0.3l-7.4,2c-0.2,0.1-0.3,0.3-0.3,0.5l1.1,4
				c0.1,0.2,0.3,0.3,0.5,0.3l7.4-2C22.7,19.1,22.9,18.9,22.8,18.7"/>
		</g>
	</g>
</g>
</svg>
